<?xml version="1.0" encoding="utf-8"?>
<!-- Generator: Adobe Illustrator 21.1.0, SVG Export Plug-In . SVG Version: 6.00 Build 0)  -->
<svg version="1.1" id="Layer_1" xmlns="http://www.w3.org/2000/svg" xmlns:xlink="http://www.w3.org/1999/xlink" x="0px" y="0px"
	 viewBox="0 0 64 64" style="enable-background:new 0 0 64 64;" xml:space="preserve">
<style type="text/css">
	.st0{fill:#FFFFFF;}
	.st1{fill-rule:evenodd;clip-rule:evenodd;fill:#ACBDC5;}
	.st2{fill-rule:evenodd;clip-rule:evenodd;fill:#314A52;}
</style>
<g id="Bin">
	<polygon class="st0" points="11,3 53,3 49,61 15,61 	"/>
	<path class="st1" d="M46.1,12.6l-2.8-2.8l2.8-2.8l2.8,2.8L46.1,12.6z M20.6,9.8l2.8,2.8l2.8-2.8l-2.8-2.8L20.6,9.8z M17.8,18.3
		l2.8-2.8l-2.8-2.8l-2.8,2.8L17.8,18.3z M43.2,21.1l2.8,2.8l2.8-2.8l-2.8-2.8L43.2,21.1z M37.6,26.7l2.8,2.8l2.8-2.8l-2.8-2.8
		L37.6,26.7z M29.1,35.2l-2.8,2.8l2.8,2.8l2.8-2.8L29.1,35.2z M34.7,35.2l2.8-2.8l-2.8-2.8l-2.8,2.8L34.7,35.2z M17.8,35.2l-2.8,2.8
		l2.8,2.8l2.8-2.8L17.8,35.2z M20.6,32.4l2.8-2.8l2.8,2.8l-2.8,2.8L20.6,32.4z M20.6,26.7l-2.8-2.8l-2.8,2.8l2.8,2.8L20.6,26.7z
		 M26.3,26.7l2.8-2.8l2.8,2.8l-2.8,2.8L26.3,26.7z M26.3,21.1l-2.8-2.8l-2.8,2.8l2.8,2.8L26.3,21.1z M31.9,21.1l2.8-2.8l2.8,2.8
		l-2.8,2.8L31.9,21.1z M31.9,15.4l-2.8-2.8l-2.8,2.8l2.8,2.8L31.9,15.4z M37.6,15.4l2.8-2.8l2.8,2.8l-2.8,2.8L37.6,15.4z M37.6,9.8
		l-2.8-2.8l-2.8,2.8l2.8,2.8L37.6,9.8z M14.9,9.8l-2.3,2.3l-0.3-5L14.9,9.8z M14.9,21.1l-1.6,1.6l-0.2-3.4L14.9,21.1z M14.9,32.4
		l-0.9,0.9l-0.1-1.9L14.9,32.4z M49.4,27.3c0.2-0.5,0.3-1,0.5-1.5l-1,1L49.4,27.3z M47.7,31.2c-0.6,1.2-1.4,2.4-2.2,3.5l-2.3-2.3
		l2.8-2.8L47.7,31.2z M42.9,37.7c-1,0.9-2,1.8-3.1,2.5l-2.2-2.2l2.8-2.8L42.9,37.7z M36.2,42.3c-1.3,0.6-2.7,1-4.1,1.3l2.7-2.7
		L36.2,42.3z M26,43.9c-1.8-0.1-3.4-0.4-4.9-0.8l2.3-2.3l2.8,2.8L26,43.9z M46.1,1.3l5.7,5.7l0.9-0.9l2.8,2.8l-6.5,6.5l5.7,5.7
		L49,61l-5,3H19.6c-4.2,0-7.7-3.3-8-7.5L8,3.1l5.5-0.4l4.2,4.2l5.7-5.7l5.7,5.7l5.7-5.7l5.7,5.7L46.1,1.3z"/>
	<path class="st2" d="M51.9,4H4V0h56v4h-4.1l-3.6,52.5c-0.3,4.2-3.8,7.5-8,7.5H40v-4h4.4c2.1,0,3.8-1.6,4-3.7L51.9,4z"/>
</g>
</svg>
